<svg id="radio" xmlns="http://www.w3.org/2000/svg" viewBox="0 0 686.21 531.14"><defs><style>.cls-1{fill:#00ced1;}.cls-1,.cls-2,.cls-3,.cls-4,.cls-5,.cls-6,.cls-7{stroke:#231f20;stroke-miterlimit:10;}.cls-1,.cls-2,.cls-3{stroke-width:3px;}.cls-2,.cls-6,.cls-7{fill:#404040;}.cls-3,.cls-4,.cls-5{fill:#fdda0d;}.cls-5,.cls-6{stroke-width:2px;}</style></defs><rect class="cls-1" x="1.5" y="222.64" width="683" height="307"/><circle class="cls-2" cx="140.25" cy="353.09" r="87.5"/><circle class="cls-2" cx="547.97" cy="355.45" r="87.5"/><circle class="cls-3" cx="549.21" cy="356.7" r="64.22"/><ellipse class="cls-2" cx="547.97" cy="358.05" rx="47.36" ry="45.01"/><circle class="cls-3" cx="547.97" cy="355.45" r="25.79"/><rect class="cls-2" x="1.71" y="486.9" width="683" height="42.75"/><rect class="cls-2" x="257.33" y="294.39" width="173.56" height="13.26"/><rect class="cls-2" x="257.33" y="255.74" width="173.56" height="32.21"/><rect class="cls-2" x="257.33" y="315.23" width="173.56" height="103.2"/><polygon class="cls-4" points="421.92 259.89 427.51 259.89 427.51 281.65 421.62 281.65 421.62 274.4 414.37 274.4 414.37 281.65 408.32 281.65 408.32 274.55 398.2 274.55 398.2 281.65 392 281.65 392 274.25 382.33 274.25 382.33 281.65 376.29 281.65 376.29 273.79 366.62 273.79 366.62 281.65 360.18 281.65 360.18 273.94 349.7 273.94 349.7 281.65 344.11 281.65 344.11 274.25 332.93 274.1 332.93 281.65 326.43 281.65 326.43 274.1 317.97 274.1 317.97 281.65 311.32 281.65 311.32 274.1 300.29 274.1 300.29 281.65 294.7 281.65 294.7 274.25 284.73 274.25 284.73 281.65 279.14 281.65 279.14 274.25 268.41 274.25 268.41 281.65 262.82 281.65 262.82 261.71 262.82 259.89 268.11 259.89 268.11 267.95 279.29 267.95 279.29 259.89 284.73 259.89 284.73 267.95 294.7 267.95 294.7 259.89 300.44 259.89 300.44 267.95 311.32 267.95 311.47 259.89 318.12 259.89 318.12 267.95 326.43 267.95 326.58 259.89 332.78 259.89 332.78 267.95 344.11 267.95 344.11 259.89 349.55 259.89 349.55 267.95 360.18 267.95 360.18 259.89 366.47 259.89 366.47 267.95 376.59 267.95 376.59 259.89 382.49 259.89 382.49 267.95 392.16 267.95 392.16 259.89 398.5 259.89 398.5 267.95 408.47 267.95 408.47 259.89 414.21 259.89 414.21 267.95 421.92 267.95 421.92 259.89"/><rect class="cls-4" x="261.74" y="320.92" width="165.77" height="7.33"/><rect class="cls-4" x="261.74" y="404.92" width="165.77" height="7.33"/><circle class="cls-5" cx="389.21" cy="368.25" r="29.6"/><circle class="cls-5" cx="302.79" cy="368.25" r="29.6"/><circle class="cls-3" cx="140.25" cy="355.45" r="62.98"/><ellipse class="cls-2" cx="140.25" cy="355.45" rx="47.36" ry="45.01"/><circle class="cls-3" cx="138.77" cy="353.09" r="25.79"/><ellipse class="cls-6" cx="302.79" cy="368.25" rx="23.53" ry="22.78"/><circle class="cls-5" cx="302.79" cy="368.25" r="15.16"/><ellipse class="cls-6" cx="389.21" cy="367.53" rx="23.53" ry="22.78"/><circle class="cls-5" cx="389.21" cy="368.25" r="15.16"/><polyline class="cls-2" points="109.02 222.64 109.02 171.61 110.92 167.44 112.97 162.9 121.91 156.83 559.97 156.83 565.27 159.49 570.58 162.9 573.76 167.82 573.76 171.23 573.76 222.64 567.93 222.64 567.55 171.23 564.52 167.44 559.21 164.41 127.59 164.03 122.66 164.79 119.25 168.58 116.6 172.37 116.98 222.64 109.02 222.64"/><path class="cls-7" d="M514.65,459.28,806.82,250.61a10.47,10.47,0,0,1,.38-7.2c1.85-4.08,5.93-5.3,7.2-5.68.42-.13,8.52-2.42,12.88,3,3.75,4.68,1.36,10.84,1.14,11.37A13,13,0,0,1,821.6,259l-5.31.38-4.92-3-283.08,203" transform="translate(-279.82 -236.64)"/><polygon class="cls-2" points="455.76 222.64 455.76 204.96 453.48 201.17 448.18 198.14 431.26 198.14 425.44 200.03 421.65 205.34 421.65 222.64 455.76 222.64"/><polygon class="cls-2" points="499.34 222.64 499.34 204.96 497.06 201.17 491.76 198.14 474.84 198.14 469.02 200.03 465.23 205.34 465.23 222.64 499.34 222.64"/><polygon class="cls-2" points="543.55 222.64 543.55 204.96 541.27 201.17 535.97 198.14 519.05 198.14 513.23 200.03 509.44 205.34 509.44 222.64 543.55 222.64"/><polygon class="cls-2" points="412.74 222.64 412.74 204.96 410.46 201.17 405.16 198.14 388.24 198.14 382.42 200.03 378.63 205.34 378.63 222.64 412.74 222.64"/></svg>