<?xml version="1.0" encoding="utf-8"?>

<!DOCTYPE svg PUBLIC "-//W3C//DTD SVG 1.1//EN" "http://www.w3.org/Graphics/SVG/1.1/DTD/svg11.dtd">
<svg version="1.1" id="Layer_1" xmlns="http://www.w3.org/2000/svg" xmlns:xlink="http://www.w3.org/1999/xlink" x="0px" y="0px"
	 viewBox="0 0 1920 1722" enable-background="new 0 0 1920 1722" xml:space="preserve">
<g>
	<path d="M692.34,10.26c3.52-0.52,7.11-0.31,10.66-0.23c8.39,0.5,15.81,4.91,22.8,9.2c14.98,9.81,26.34,24.11,36.04,38.95
		c18.61,28.98,32.12,60.81,45.68,92.37c13.79,32.43,27.15,65.06,41.93,97.07c0.59,0.97,0.91,2.28,2,2.87
		c10.02,4.93,19.5,10.93,29.79,15.33c24.78,11.09,49.67,22.8,70.89,40.01c16.93,13.43,31.26,30.07,42.07,48.79
		c11.88-3.65,24.27,0.6,35.44,4.72c37.7999,15.22,69.02,44.15,90.88,78.18c2.5599,3.67,4.11,8.4,8.2999,10.61
		c12.2001,7.48,24.0901,15.47,35.88,23.58c6.8601-7.55,17.3401-10.56,27.3-10.32c16.51,0.21,32.51,6.45,46.16,15.48
		c9.59,6.53,18.21,14.95,23.52,25.38c7.6499,15.83,7.73,33.79,10.47,50.83c0.85,4.06,0.26,9.05,3.77,11.97
		c24.6599,24.41,48.2799,49.87,70.49,76.53c51,60.99,95.83,126.76,144.35,189.68c23.53,30.52,48.28,60.17,75.33,87.66
		c48.4601,49.64,103.9401,92.26,163.92,127.06c48.88,28.5701,100.3099,52.47,152.35,74.65c5.38,2.6,11.38,4.24,16,8.2
		c-9.25,0-18.27-2.38-27.38-3.6899c-47.73-7.98-95.29-18.38-140.71-35.34c-36.3-13.5601-71.3201-31.24-102.13-54.9
		c-45.35-34.39-82.47-77.95-118.34-121.77c-22.39-27.62-44.29-55.63-66.6901-83.24c-19.96-24.63-40.35-48.91-61.0499-72.91
		c-6.7301-6.67-12.0701-14.61-19-21.09c-2.4701-2.57-4.1901-5.78-6.9701-8.05c-3.2999-2.75-5.13-6.8-8.49-9.4901
		c-3.5699-2.8199-5.51-7.09-8.96-10.0099c-2.97-2.5-5.25-5.64-7.6801-8.61c4.0601,11.21,8.55,22.29,11.7001,33.82
		c12.97,42.38,17.8099,86.6,22.8099,130.46c4.9601,44.17,10.1801,88.38,18.75,132.02c8.54,44.08,20.4301,87.4199,33.51,130.34
		c12.02,39.41,25.11,78.49,38.51,117.45c6.86,20.5,14.21,40.8301,20.5701,61.4901c2.75,9.8199,6.74,19.58,6.84,29.9099
		c-3.9501-2.6699-5.4601-7.4099-7.64-11.4c-8.83-18.36-16.11-37.4099-23.4301-56.3999c-15.47-41.39-29.86-83.16-44-125.01
		c-5.38-16.4401-11.62-32.5901-16.84-49.0801c-13.3-39.96-26.99-79.77-40.46-119.67c-14.88-43.54-29.8101-87.08-45.6-130.3
		c-13.9401-38.96-28.87-77.55-43.9701-116.07c-15.4099-38.77-31.4399-77.31-48.76-115.27c-7.63-16.27-15.0599-32.68-23.48-48.54
		c-10-8.67-20.6799-16.63-31.37-24.46c4.7001,25.08,7.79,50.44,12.03,75.6c6.52,42.8,15.39,85.22,26.22,127.14
		c12.4501,49.13,26.64,97.8,40.5601,146.53c5.85,20.63,11.9199,41.22,16.98,62.06c1.5,7.02,3.61,14.06,3.28,21.32
		c-3.5801-1.37-4.91-5.19-6.66-8.25c-9.23-18.13-16.4-37.2-23.87-56.09c-29.73-77.8-56.41-156.73-83.4401-235.5
		c-14.4399-42.3-28.61-84.68-43.11-126.95c-6.38-18.42-12.84-36.81-20.21-54.86c-0.58-1.29-1.15-2.73-2.53-3.34
		c-9.86-5.48-19.75-10.9-29.5699-16.43c-4.54-2.26-9.0901-4.51-13.3401-7.28c3.5801,11.48,5.9901,23.28,8.75,34.98
		c11.26,47.22,21.63,94.66,33.27,141.79c20.8201,84.54,45.62,168.32,79.17,248.75c32.4399,77.74,71.49,152.48,111.34,226.61
		c9.0701,16.9301,18.22,33.8301,27,50.91c4.64,9.1899,9.3301,18.37,13.0801,27.98c0.8899,2.25,1.38,4.63,1.73,7.04
		c-4.0601-1.64-6.47-5.4401-9.11-8.6901c-10.6001-13.95-20.05-28.71-29.53-43.4299c-43.72-69.04-84.42-139.97-123.22-211.89
		c-38.66-71.94-74.88-145.36-104.38-221.58c-17.0801-43.8-32.15-88.37-45.47-133.44c-12.96-43.61-23.9-87.77-35.3-131.79
		c-2.85-10.77-5.74-21.53-8.87-32.21c-0.46-1.91-1.73-3.48-3.36-4.51c-13.49-9.28-26.08-19.82-37.9-31.13
		c-11.52-11.64-21.71-24.55-30.74-38.2c-13.54-20.91-23.52-43.84-33.4301-66.61c-4.67-10.84-8.17-22.15-12.95-32.94
		c-1.31-4.68-3.75-8.95-4.79-13.7c-2.88-10.84-7.8-20.98-10.94-31.73c-7.16-19.54-14.3-39.14-23.06-58.03
		c-11.4-25.99-24.06-51.54-39.57-75.37c-5.47-8.35-11.48-16.37-18.3-23.67c-4.97-4.87-10.32-10.12-17.37-11.61
		c3.02,7.16,10.43,10.92,14.76,17.16c5.75,8.58,13.9,15.37,18.51,24.74c18.47,29.94,30.11,63.52,38.63,97.5
		c5.55,22.52,9.99,45.31,13.75,68.2c2.7,15.98,4.5,32.09,7.03,48.08c0.51,12.64,2.68,25.16,2.46,37.83
		c-0.07,9.55,0.89,19.95-4.03,28.56c-4.17,6.55-13.18,6.07-19.54,3.44c-16.01-6.37-27.14-20.22-38.07-32.91
		c-4.06-5.9-8.97-11.17-12.77-17.25c-12.3-18.12-22.89-37.32-33.53-56.43c-2.71-5.09-6.37-9.66-10.91-13.23
		c-2.48-1.79-5.7401-1.76-8.6201-1.25c-4.15,5.82-6.89,12.52-10.83,18.49c-15.19,24.03-30.91,47.8-43.95,73.11
		c-9.9,20.52-17.65,42.54-18.86,65.47c-0.62,12.04,1.28,24.04,3.93,35.76c5.04,17.67,14.72,33.59,25.29,48.46
		c10.28,14.56,22.29,27.79,33,42.03c2.38,3.56,5.71,7.14,5.41,11.73c-5.4301-0.64-9.98-3.87-14.5-6.67
		c-13.92-9.08-26.78-19.71-38.84-31.11c-13.65-13.28-26.24-27.96-35.22-44.85c-4.21-7.44-7.07-15.54-10.16-23.48
		c-2.61-8.38-4.05-17.12-4.85-25.84c0.19-6.37-1.54-12.7-0.35-19.03c0.9-17.57,4.97-34.87,11.32-51.25
		c5.3-13.94,10.96-27.8,18.52-40.7c-7.99,6.68-15.79,13.59-23.93,20.09c-2.68,2.29-4.85,5.15-7.71,7.24
		c-4.86,3.43-8.48,8.22-12.82,12.23c-5.08,5.17-10.32,10.19-15.39,15.36c-5.49,9.92-6.89,21.39-9.17,32.33
		c-1.27,9.47-2.54,18.96-2.77,28.52c-1.51,10.65-0.26,21.47-1.55,32.15c-0.3,9.02-0.4,18.06-0.31,27.09
		c-0.6-3.57-0.71-7.19-0.96-10.78c0.08,7.9,0.25,15.85-0.16,23.77c-4.05,43.34-8.96,86.77-19.19,129.15
		c-0.86,3.11-1.71,7.19-5.26,8.19c-1.16-9.77,0.13-19.57,0.8-29.32c2.46-27.97,5.01-55.98,4.75-84.07
		c-0.4301-23.33-2.07-46.71-6.46-69.66c-1.35-9.26-4.04-18.26-5.38-27.51c-3.32,7.28-8.41,13.5-12.47,20.34
		c-11.54,18.09-23.17,36.11-34.88,54.08c-7.47,11.74-16.19,22.62-23.74,34.3c-21.43,30.18-42.57,60.57-64.36,90.5
		c-10.05,14.35-20.86,28.64-26.64,45.37c-3.73,10.58-2.66,22.25,1.3,32.6c5.95,16.73,15.22,32.8,15.66,50.99
		c-0.08,16.83-6.73,32.68-13.89,47.6c-8.61,17.04-18.94,33.12-28.06,49.88c-17.77,32.96-33.75,66.84-50.92,100.12
		c-11.79,21.76-21.99,44.35-33.96,66.01c-11.26,23.54-23.57,46.55-35.11,69.96c-13.8,27.3301-27.11,54.89-40.63,82.36
		c-3.44,9.17-8.89,17.39-12.5,26.49c-2.08,5.3601-5.28,10.1901-7.39,15.54c-5.21,12.23-11.29,24.05-16.66,36.21
		c-6.32,14.9301-13.23,29.6001-19.21,44.6901c-13.15,32.46-25.98,65.61-30.27,100.59c-0.7,10.29-0.57,20.6801,1.16,30.87
		c2.45,14.76,4.69,29.65,4.47,44.66c0.09,12.8-2.2,25.45-3.76,38.12c-0.61,10.03-1.33,20.4401,2.03,30.1
		c4.26,13.52,14.25,24.1801,24.16,33.9c19.91,19.33,43.29,34.58,63.94,53.0601c7.06,6.4399,13.85,13.63,17.53,22.6
		c3.54,7.9399,4.44,17.0699,9.71,24.1899c6.17,7.87,16.05,11.48,25.46,13.7101c18.39,4.09,37.56,3.73,56.06,0.63
		c31.5-5.5701,62.56-20.6801,81.89-46.8601c13-16.95,21.91-36.5,31.24-55.58c7.05-14.5699,14.44-29.52,26.45-40.71
		c11.75-10.55,26.44-16.88,39.66-25.3101c30.41-18.33,54.23-45.08,80.82-68.1799c15.19-13.37,31.0099-26.15,48.28-36.76
		c30.39-18.6901,64.59-29.9501,98.87-39.12c44.95-11.86,90.49-21.3301,135.31-33.6801c33.47-9.4,67.16-19.46,97.8-36.24
		c17.1201-9.41,32.85-21.4301,46.04-35.88c21.74-24.08,36.53-53.48,48.57-83.37c16.45-41.58,26.98-85.33,33.37-129.53
		c4.87-32.0699,7.08-64.4399,10.67-96.66c0.4199-2.34,0.2-5.19,2.25-6.82c2.0299,9.29,2.1899,18.85,2.6399,28.31
		c0.5801,21.04,0.2001,42.09-0.1499,63.13c-0.4801,5.3-0.87,10.61-0.8101,15.94c0.14,6.36-1.16,12.63-0.99,19
		c0.15,5.01-0.92,9.95-0.95,14.95c0.0399,8.0601-1.3501,16.03-1.17,24.1101c-0.9301,6.26-0.75,12.6-1.14,18.9099
		c-1.23,7.4501-0.22,15.05-1.36,22.51c-0.62,6.48-0.22,13.01-0.51,19.52c-1.2,10.62-0.71,21.34-0.91,32.01
		c-0.01,15.66-0.08,31.33,0.0701,46.99c-0.16,7.7,1.23,15.33,0.96,23.04c2.71,46.6599,9.05,93.14,18.88,138.85
		c17.3,82.65,46.3199,162.14,74.33,241.61c4.1101,11.63,7.87,23.39,11.3301,35.24c1.2899,4.4501,2.13,9.0601,1.9199,13.72
		c-4.38-2.25-5.76-7.3999-8.11-11.36c-16.64-35.49-30.4099-72.26-46.9399-107.7899c-12.63-28.8601-25.54-57.6101-38.97-86.0901
		c-4.28-7.9299-7.42-16.3999-11.67-24.34c-19.51-39.64-40.6-78.6801-66.43-114.62c-8.05-10.85-16.02-21.91-25.95-31.15
		c-3.47-3.8099-7.57-7.6899-12.94-8.3099c-5.53-0.4401-10.33,2.87-15.29,4.76c-16.46,8.0399-33.47,14.84-50.59,21.33
		c-59.69,21.7-120.4,41.04-177.99,68.0599c-37.92,17.76-73.32,40.28-109,62.0701c-9.35,5.34-18.69,10.6799-28.16,15.8099
		c-16.1,7.8401-32.67,14.79-49.74,20.2301c-22.39,7.3099-45.44,12.36-67.86,19.5599c-7.57,2.64-14.95,6.3101-20.82,11.86
		c-5.72,5.22-8.55,12.63-11.64,19.54c-3.59,10.53-7.23,21.0599-10.28,31.76c-2.85,8.73-6.08,17.36-10.47,25.4399
		c-4.52,9.8501-11.66,18.1001-18.49,26.39c-3.45,3.91-7.96,6.65-11.61,10.35c-17.49,13.5801-37.36,23.8-57.83,32.0701
		c-18.34,7.6-37.46,13.27-56.95,17.03c-10.29,1.97-20.73,3.2699-31.22,2.9099c-20.56,0.8501-41.44-3.7-59.57-13.5
		c-8.86-5.0299-17.07-11.51-22.99-19.87c-5.64-7.86-9.6-16.8099-15.6-24.4199c-3.39-3.62-5.96-8.0601-10.15-10.88
		c-3.14-2.14-5.52-5.14-8.25-7.73c-16.71-13.27-30.12-30.79-38.34-50.52c-8.9-20.41-15.62-41.67-23.57-62.4501
		c-7.48-19.7899-14.3-40.3099-15.14-61.61c-1.02-18.41,4.77-36.24,11.29-53.1899c7.94-20.3,17.17-40.05,26.24-59.86
		c47.32-101.9801,95.6-203.51,144.05-304.9501c11.98-25.35,23.92-50.74,34.23-76.82c13.81-34.41,24.02-70.85,24.33-108.16
		c1.02-12.99-0.26-25.99-0.3-38.99c-1.05-13.98-1.76-27.98-2.76-41.96c-0.11-13.99-1.08-28.16,1.88-41.94
		c2.87-15.07,10.24-29.01,20.21-40.58c10.77-12.51,22.69-23.96,33.68-36.28c32.42-35.72,59.33-75.91,85.94-116.01
		c2.08-3.48,4.85-6.63,6.27-10.44c-2.27-13.13-1.02-26.59,1.57-39.58c4.97-24.71,13.19-48.86,25.02-71.15
		c-12.14-11.34-23.61-23.52-32.83-37.39c-20.94-30.4-33.4-65.45-45.68-99.96c-6.24-21.03-12.32-42.19-15.53-63.93
		c-3.76-20.69-6.08-41.71-5.61-62.76c-0.08-9.39,0.8-18.82,2.95-27.96c0.91-3.32,1.82-6.93,4.38-9.38c2.35-2.04,5.64-0.74,7.96,0.65
		c5.66,3.5,10.32,8.32,15.19,12.8c20.37,19.96,39.93,40.72,60.33,60.66c28.2,27.87,57.43,54.7,87.69,80.33
		c1.94,1.69,4,3.23,6.01,4.84c16.98-9.02,35.48-14.55,53.75-20.28c30.28-9.21,60.86-17.81,92.15-22.81
		c1.33-0.11,2.04-1.37,2.77-2.32c9.7-14.83,14.06-32.34,17.06-49.6c2.85-17.87,4.76-35.9,5.08-53.99
		c1.14-9.61,0.59-19.32,0.7599-28.97c-0.18-10.67,0.34-21.37-0.8199-32c-0.16-8.34-0.33-16.69,0.06-25.03
		C688.16,17.82,688.59,12.87,692.34,10.26 M356.12,189.75c0.61,6.86,2.59,13.47,4.03,20.17c4.7,21.62,11.49,42.68,18.07,63.76
		c2.8,7.23,4.39,14.85,7.33,22.02c9.79,28.13,21.76,55.53,36.36,81.51c3.62,6.65,7.96,12.88,11.63,19.51
		c2.91-4.9,6.13-9.6,9.74-14.01c-5.85-6.96-10.65-14.69-15.64-22.27c-15.14-25.21-27.81-51.83-38.86-79.06
		c-2.24-7.32-5.77-14.13-8.29-21.33c-6.85-17.36-12.67-35.1-18.5-52.82C360.2,201.36,358.88,195.28,356.12,189.75z"/>
	<path d="M608.99,688.96c23.98-6.95,48.98-10.86,73.99-10.2c14.92,0.57,29.95,1.86,44.39,5.87c6.11,1.88,12.61,4.14,16.86,9.2
		c2.62,3.13,4.14,8.15,1.31,11.65c-2.2599,2.08-5.41,2.74-8.07,4.15c-5.68,2.59-9.66,7.55-14.02,11.82
		c-8.96,9.11-17.72,19.05-29.56,24.48c-13.04,6.04-28.42,7.38-42.01,2.33c-14.47-5.09-26.39-16.3-33.44-29.81
		c-3.35-5.84-5.78-12.41-10.75-17.14c-3-2.94-7.03-4.37-10.6-6.44C600.03,691.27,604.8,690.38,608.99,688.96z"/>
	<path d="M202.19,1313.4399c7-1.9299,13.43,2.6901,18.7,6.7001c11.34,9.58,20.37,21.72,27.39,34.74
		c5.26,10.23,9.74,21.46,9.22,33.16c-0.17,5.77-2.63,11.6599-7.32,15.2c-9.19,7.21-21.33,9.21-30.51,16.47
		c-11.09,8.66-16.21,22.53-19.03,35.86c-0.86,4.41-3.44,9.92-8.6,10.0901c-7.27,1.08-16.05-3.7101-16.33-11.67
		c0.82-8.33,4.18-16.13,7.43-23.76c5.48-12.36,11.81-24.4,19.45-35.5699c4.48-6.99,10.06-13.74,11.63-22.1
		c0.75-6.6101,0.14-13.29-1.01-19.8101c-1.57-9.17-3.25-18.4399-7-27.01C204.56,1321.75,202,1317.9301,202.19,1313.4399z"/>
</g>
</svg>
